<svg width="18" height="18" viewBox="0 0 18 18" fill="none" xmlns="http://www.w3.org/2000/svg">
<path fill-rule="evenodd" clip-rule="evenodd" d="M15.709 1.41382C14.8133 0.482768 13.5387 0 12.0918 0H4.99518C1.99807 0 0 2.00004 0 5.00009V12.0692C0 13.552 0.482293 14.8279 1.44688 15.7589C2.37702 16.6555 3.6172 17.1038 5.02963 17.1038H12.0573C13.5387 17.1038 14.7788 16.621 15.6745 15.7589C16.6047 14.8624 17.087 13.5865 17.087 12.1037V5.00009C17.087 3.55179 16.6047 2.31039 15.709 1.41382ZM15.5724 12.1034C15.5724 13.1724 15.1935 14.0344 14.5734 14.6207C13.9533 15.2069 13.0921 15.5172 12.0586 15.5172H5.03089C3.9974 15.5172 3.13617 15.2069 2.51607 14.6207C1.89598 14 1.58594 13.1379 1.58594 12.0689V4.99979C1.58594 3.96529 1.89598 3.10321 2.51607 2.48251C3.10172 1.89629 3.9974 1.58594 5.03089 1.58594H12.1275C13.161 1.58594 14.0222 1.89629 14.6423 2.51699C15.2279 3.13769 15.5724 3.99978 15.5724 4.99979V12.1034ZM14.1231 3.99961C14.1231 4.55167 13.6758 4.9992 13.124 4.9992C12.5723 4.9992 12.125 4.55167 12.125 3.99961C12.125 3.44756 12.5723 3.00003 13.124 3.00003C13.6758 3.00003 14.1231 3.44756 14.1231 3.99961ZM4.13477 8.51544C4.13477 6.06712 6.13284 4.10156 8.5443 4.10156C10.9558 4.10156 12.9538 6.1016 12.9538 8.51544C12.9538 10.9293 10.9902 12.9293 8.5443 12.9293C6.09839 12.9293 4.13477 10.9638 4.13477 8.51544ZM5.7207 8.51514C5.7207 10.0669 6.99534 11.3428 8.54556 11.3428C10.0958 11.3428 11.3704 10.0669 11.3704 8.51514C11.3704 6.96339 10.0958 5.6875 8.54556 5.6875C6.99534 5.6875 5.7207 6.96339 5.7207 8.51514Z" fill="white"/>
</svg>
