<svg width="15" height="17" viewBox="0 0 15 17" fill="none" xmlns="http://www.w3.org/2000/svg">
<g clip-path="url(#clip0_101_37)">
<path d="M7.91761 0.000444526C8.84056 0.0017781 9.76351 0.00311168 10.6865 0.00444526C10.6882 0.933504 10.9888 1.76788 11.5345 2.50846C11.8845 2.98366 12.3242 3.37039 12.8423 3.67089C13.3434 3.96117 13.8834 4.12475 14.4465 4.22477C14.6213 4.25589 14.8036 4.24655 15.0003 4.25678V6.9835C14.6445 7.01195 14.2887 6.98661 13.9288 6.9306C13.3251 6.83681 12.7473 6.66878 12.1882 6.4274C11.7138 6.22247 11.2665 5.97176 10.8492 5.66815C10.8144 5.64281 10.7774 5.62058 10.7413 5.59658L10.6963 5.56946L10.6981 5.6277C10.7012 7.29689 10.7056 8.96608 10.7065 10.6348C10.7065 11.1331 10.7212 11.6337 10.6856 12.1298C10.645 12.6943 10.5121 13.2433 10.2847 13.7679C10.0047 14.4151 9.61727 14.9867 9.10719 15.4735C8.35679 16.1901 7.48645 16.6911 6.45381 16.8711C6.05253 16.9409 5.64322 16.9982 5.23747 17C4.55618 17.0027 3.89986 16.8466 3.26895 16.5839C2.5939 16.3025 2 15.9007 1.49706 15.3761C0.821119 14.672 0.360088 13.8452 0.142949 12.8881C0.0332645 12.4049 -0.0251446 11.9151 0.0123086 11.4243C0.0889984 10.4215 0.406905 9.49907 1.0017 8.67714C1.41368 8.10771 1.91841 7.64051 2.51454 7.26755C2.92117 7.01328 3.35991 6.83681 3.81514 6.687C4.49242 6.46385 5.18754 6.48741 5.88354 6.49363C5.97495 6.49452 6.0659 6.52164 6.16444 6.53809V9.32304C5.9745 9.29903 5.79125 9.28659 5.61201 9.25058C5.22365 9.17234 4.85224 9.24925 4.4893 9.36749C4.15802 9.47551 3.86553 9.66621 3.61673 9.90581C3.27653 10.2334 3.03264 10.6299 2.91671 11.0909C2.76512 11.695 2.81149 12.2898 3.09818 12.8455C3.39424 13.4189 3.84591 13.8376 4.45542 14.0772C5.4943 14.4858 6.61165 14.1461 7.30498 13.3376C7.60728 12.985 7.80792 12.573 7.85251 12.1004C7.87257 11.8875 7.89933 11.6741 7.89933 11.4612C7.90423 7.70674 7.90512 3.95272 7.90735 0.198259C7.90735 0.132024 7.91404 0.0662343 7.91761 0V0.000444526Z" fill="white"/>
</g>
<defs>
<clipPath id="clip0_101_37">
<rect width="15" height="17" fill="white"/>
</clipPath>
</defs>
</svg>
