<svg width="17" height="17" viewBox="0 0 17 17" fill="none" xmlns="http://www.w3.org/2000/svg">
<g clip-path="url(#clip0_101_39)">
<path d="M0 15.473C0 10.8246 0 6.17599 0 1.52741C0.0112741 1.51133 0.0292017 1.49654 0.0325285 1.47898C0.142127 0.899182 0.479795 0.484246 0.98454 0.206452C1.16104 0.109417 1.36767 0.067277 1.56063 0C6.17579 0 10.7909 0 15.4063 0C15.4226 0.0105351 15.4377 0.0275392 15.4555 0.0306813C15.8598 0.102209 16.2117 0.281676 16.4936 0.57666C16.8595 0.959621 16.9987 1.43703 16.9989 1.95565C17.0009 6.32126 17.0004 10.6871 16.9983 15.0527C16.9983 15.2101 16.9897 15.3713 16.9551 15.5242C16.8599 15.9445 16.6616 16.3028 16.3149 16.5786C15.9863 16.8399 15.6203 16.9967 15.2045 16.997C10.7283 17.0011 6.25212 17.0019 1.77594 16.9965C1.08305 16.9958 0.576826 16.6449 0.235277 16.0589C0.130483 15.8788 0.0768854 15.6691 0 15.473ZM13.9031 2.57649C13.5592 2.57649 13.2463 2.57242 12.9336 2.58074C12.884 2.58203 12.8256 2.63101 12.789 2.67315C12.554 2.94522 12.3257 3.22338 12.0913 3.496C11.8526 3.77361 11.6071 4.04567 11.3683 4.32328C11.0552 4.68702 10.7457 5.05372 10.4348 5.41968C10.1949 5.70228 9.95759 5.98709 9.71529 6.26748C9.52696 6.48557 9.33271 6.69886 9.13403 6.92232C8.7727 6.39667 8.4208 5.88655 8.07075 5.37532C7.46694 4.49314 6.8635 3.61059 6.26173 2.72693C6.18651 2.61641 6.10075 2.56909 5.9564 2.57057C5.02694 2.57963 4.09729 2.57519 3.16764 2.57519H2.7043C2.854 2.79883 2.98578 3.00066 3.12255 3.19898C3.72414 4.06989 4.32887 4.93857 4.92917 5.81022C5.67973 6.89995 6.4277 7.99136 7.17345 9.08442C7.19323 9.11326 7.19156 9.18386 7.16975 9.20992C6.9038 9.52819 6.6334 9.8424 6.36209 10.156C6.12958 10.4248 5.89283 10.6896 5.66106 10.9589C5.34095 11.331 5.02472 11.7066 4.70461 12.0788C4.47285 12.3483 4.23554 12.6131 4.00377 12.8826C3.68736 13.2506 3.37372 13.6208 3.05952 13.9907C2.94678 14.1234 2.83571 14.2575 2.7043 14.4145C3.04696 14.4145 3.34581 14.4159 3.64448 14.4124C3.68126 14.4121 3.72876 14.3945 3.75242 14.3681C4.02152 14.0666 4.28988 13.7644 4.55288 13.4576C4.91845 13.0312 5.27682 12.5985 5.64276 12.1725C5.95252 11.8119 6.27134 11.4589 6.58165 11.0985C6.94612 10.675 7.3056 10.2472 7.66914 9.81911C8.00256 10.2965 8.32932 10.7588 8.64998 11.2253C9.35082 12.2446 10.0509 13.2645 10.7444 14.2888C10.8096 14.3851 10.873 14.4165 10.9821 14.4163C12.0333 14.4132 13.0848 14.4145 14.1362 14.4145H14.2831C13.7259 13.6045 13.182 12.8144 12.6386 12.0239C11.6657 10.6087 10.6934 9.1931 9.72065 7.77788C9.57889 7.57143 9.58296 7.57568 9.7639 7.38328C9.94003 7.19605 10.108 7.00087 10.2757 6.80588C10.5956 6.43364 10.9118 6.05825 11.2314 5.68564C11.4556 5.42448 11.6849 5.16757 11.9087 4.90604C12.2847 4.46689 12.6573 4.02479 13.033 3.58527C13.3147 3.25572 13.5991 2.92858 13.9031 2.5763V2.57649Z" fill="white"/>
<path d="M12.8879 13.6824C12.367 13.6824 11.8712 13.6848 11.3755 13.6782C11.3315 13.6776 11.276 13.6263 11.2465 13.5841C10.8223 12.9779 10.4041 12.3676 9.97952 11.7617C9.31915 10.8195 8.6525 9.88166 7.99325 8.93867C7.38981 8.07572 6.79561 7.20648 6.19199 6.3437C5.50759 5.3656 4.81729 4.39156 4.13012 3.41512C4.12199 3.40348 4.1231 3.38537 4.11719 3.35746C4.16469 3.35432 4.20609 3.34914 4.24767 3.34914C4.67923 3.34859 5.11078 3.34988 5.54234 3.34766C5.62422 3.34729 5.67135 3.36614 5.72531 3.44414C6.46164 4.51041 7.20554 5.5715 7.94815 6.63351C8.58615 7.54545 9.22582 8.45627 9.86327 9.36858C10.7419 10.6258 11.6189 11.8843 12.4975 13.1414C12.6202 13.317 12.7481 13.4889 12.8879 13.6824Z" fill="white"/>
</g>
<defs>
<clipPath id="clip0_101_39">
<rect width="17" height="17" fill="white"/>
</clipPath>
</defs>
</svg>
