<svg width="16" height="17" viewBox="0 0 16 17" fill="none" xmlns="http://www.w3.org/2000/svg">
<g clip-path="url(#clip0_101_35)">
<path d="M12.6914 17.0005C12.4383 16.9233 12.1788 16.8614 11.9333 16.7655C11.4966 16.5951 11.1439 16.3118 10.8434 15.9586C10.5115 15.5682 10.3073 15.1228 10.2151 14.6302C10.1448 14.254 10.153 13.8756 10.268 13.4998C9.50863 13.0777 8.74718 12.656 7.9871 12.2322C7.0498 11.71 6.1125 11.1874 5.17622 10.6624C4.94062 10.5303 4.94403 10.528 4.68453 10.7313C4.03576 11.239 3.27738 11.416 2.47701 11.3072C1.5899 11.1867 0.894693 10.716 0.42314 9.96742C0.0205623 9.32799 -0.0907527 8.6343 0.0721223 7.89667C0.268119 7.00926 0.795329 6.37216 1.60868 5.95608C2.08672 5.71142 2.60949 5.62887 3.14285 5.67281C3.79093 5.7264 4.36526 5.96873 4.85969 6.3878C4.89486 6.41776 4.98842 6.42042 5.03281 6.39646C5.40739 6.19641 5.77685 5.98704 6.14801 5.78066C6.6141 5.52169 7.08053 5.26306 7.54594 5.00342C8.30295 4.58135 9.05928 4.15828 9.81629 3.73655C9.96311 3.65466 10.112 3.5771 10.2564 3.49955C10.0184 2.37414 10.3322 1.41849 11.2077 0.66222C11.6479 0.28209 12.1802 0.0707214 12.7808 0.0151332C13.4938 -0.0507738 14.146 0.0970176 14.7285 0.489464C15.3646 0.918192 15.7754 1.5007 15.9345 2.25431C16.1233 3.15004 15.8993 3.94492 15.3236 4.63561C14.8941 5.15088 14.3218 5.4701 13.6399 5.60724C12.8583 5.76435 12.1532 5.59426 11.4911 5.19881C11.331 5.10295 11.1879 4.97546 11.0527 4.84631C10.9725 4.76975 10.9103 4.76509 10.8212 4.81502C10.2704 5.12159 9.7176 5.42549 9.16649 5.73173C8.65636 6.01533 8.14861 6.30292 7.63779 6.58552C7.02453 6.92471 6.40888 7.25991 5.79529 7.59876C5.72324 7.6387 5.70002 7.68331 5.72426 7.7845C5.83729 8.2565 5.84924 8.73516 5.7229 9.20682C5.69558 9.30935 5.72699 9.34796 5.80041 9.38857C6.65337 9.86024 7.50701 10.3302 8.35929 10.8029C9.18322 11.2599 10.0044 11.7209 10.8304 12.174C10.8772 12.1996 10.981 12.1963 11.0145 12.1636C11.375 11.8155 11.8002 11.5712 12.2826 11.436C12.6893 11.3222 13.109 11.3258 13.5307 11.3784C13.9209 11.427 14.2829 11.5482 14.6097 11.7512C15.31 12.1866 15.7641 12.7924 15.9331 13.5986C16.1151 14.4664 15.9171 15.25 15.3629 15.929C14.9412 16.4459 14.3881 16.8044 13.7034 16.9336C13.615 16.9502 13.5283 16.9772 13.4409 16.9995H12.6907L12.6914 17.0005Z" fill="white"/>
</g>
<defs>
<clipPath id="clip0_101_35">
<rect width="16" height="17" fill="white"/>
</clipPath>
</defs>
</svg>
